#!OML:ASF F:\VICON\USERDATA\INSTALL\rory3\rory3.ASF
:FULLY-SPECIFIED
:DEGREES
990
root 4.19444 15.9428 2.00592 23.7003 -4.23555 -2.7372
lowerback 9.95688 -0.839295 1.87841
upperback 9.3708 -0.990202 -0.970873
thorax 4.165 -0.367246 -2.00277
lowerneck -18.9343 -0.505336 -2.6339
upperneck 38.4642 0.618529 -0.980343
head 17.2791 -0.306927 0.14029
rclavicle -4.77083e-015 0
rhumerus -54.4146 72.1116 -56.7186
rradius 56.3193
rwrist -15.7261
rhand -8.75999 -41.3251
rfingers 7.12502
rthumb 17.1775 -70.5859
lclavicle -4.77083e-015 0
lhumerus -41.7234 -78.8432 36.911
lradius 59.1336
lwrist 62.8328
lhand -26.8208 -27.3415
lfingers 7.12502
lthumb -0.247039 2.63809
rfemur -76.114 -1.503 19.8523
rtibia 37.264
rfoot 35.9229 -1.41084
rtoes 0.155915
lfemur -57.4698 -0.257247 -26.8447
ltibia 58.9988
lfoot -23.5449 6.50521
ltoes 9.33538
991
root 4.19485 15.9411 2.00554 23.7068 -4.23797 -2.72243
lowerback 9.9797 -0.838853 1.83313
upperback 9.35085 -0.992203 -0.95298
thorax 4.13165 -0.371875 -1.95803
lowerneck -18.8406 -0.532203 -2.72118
upperneck 38.4289 0.590799 -0.940152
head 17.236 -0.324175 0.168892
rclavicle 5.1684e-015 6.75868e-015
rhumerus -54.1862 71.9287 -56.4835
rradius 56.2884
rwrist -15.4539
rhand -8.33215 -41.0397
rfingers 7.12502
rthumb 17.5892 -70.264
lclavicle 5.1684e-015 6.75868e-015
lhumerus -42.293 -78.9621 37.5477
lradius 59.0622
lwrist 62.7872
lhand -26.9299 -27.7768
lfingers 7.12502
lthumb -0.352424 2.20266
rfemur -76.1539 -1.50529 19.8346
rtibia 37.3133
rfoot 35.8758 -1.85751
rtoes 0.939571
lfemur -57.4822 -0.223425 -26.8851
ltibia 59.0179
lfoot -23.549 6.4899
ltoes 9.42862
992
root 4.19717 15.9419 2.00486 23.7223 -4.20761 -2.73273
lowerback 9.99825 -0.859816 1.83852
upperback 9.34181 -1.01935 -0.932713
thorax 4.11071 -0.386074 -1.93782
lowerneck -18.8277 -0.552734 -2.83881
upperneck 38.4324 0.550008 -0.80796
head 17.2341 -0.339236 0.241496
rclavicle 1.74931e-014 8.34896e-015
rhumerus -54.3455 71.9558 -56.6559
rradius 56.2828
rwrist -15.3954
rhand -7.88296 -40.6211
rfingers 7.12502
rthumb 18.0215 -69.8062
lclavicle 1.74931e-014 8.34896e-015
lhumerus -42.6781 -78.9575 38.0127
lradius 58.9389
lwrist 62.6173
lhand -27.1631 -28.3426
lfingers 7.12502
lthumb -0.577626 1.63641
rfemur -76.1879 -1.5429 19.868
rtibia 37.3597
rfoot 35.8582 -1.72221
rtoes 0.639509
lfemur -57.5172 -0.191693 -26.9073
ltibia 59.0325
lfoot -23.5447 6.47288
ltoes 9.25587
993
root 4.19727 15.9424 2.0037 23.7454 -4.1826 -2.75644
lowerback 10.0839 -0.875071 1.82896
upperback 9.28418 -1.03846 -0.911309
thorax 4.00154 -0.39853 -1.907
lowerneck -18.8401 -0.547509 -2.86842
upperneck 38.4802 0.549798 -0.758851
head 17.2629 -0.337814 0.268645
rclavicle -1.98785e-015 -9.93923e-015
rhumerus -54.5184 71.9769 -56.8656
rradius 56.2539
rwrist -15.3691
rhand -7.57297 -40.4345
rfingers 7.12502
rthumb 18.3197 -69.5918
lclavicle -1.98785e-015 -9.93923e-015
lhumerus -42.6911 -78.8152 38.1249
lradius 58.7776
lwrist 62.3545
lhand -27.2401 -28.4603
lfingers 7.12502
lthumb -0.651967 1.51846
rfemur -76.2256 -1.55087 19.911
rtibia 37.3943
rfoot 35.8421 -1.93979
rtoes 0.911437
lfemur -57.5859 -0.157564 -26.8922
ltibia 59.0353
lfoot -23.5028 6.39537
ltoes 9.15515
994
root 4.19077 15.939 2.00641 23.7604 -4.33593 -2.69634
lowerback 10.0923 -0.808231 1.57771
upperback 9.24692 -0.966514 -0.909973
thorax 3.9628 -0.377056 -1.76886
lowerneck -18.8078 -0.559249 -2.88045
upperneck 38.4936 0.537492 -0.763724
head 17.2623 -0.345268 0.266153
rclavicle 3.97569e-016 -1.74931e-014
rhumerus -54.6913 72.054 -56.9982
rradius 56.3199
rwrist -15.5063
rhand -7.54362 -40.538
rfingers 7.12502
rthumb 18.3479 -69.6927
lclavicle 3.97569e-016 -1.74931e-014
lhumerus -42.7032 -78.6649 38.2426
lradius 58.6765
lwrist 62.1851
lhand -27.3878 -28.5086
lfingers 7.12502
lthumb -0.794591 1.46965
rfemur -76.28 -1.33284 19.6961
rtibia 37.4245
rfoot 35.8538 -1.69386
rtoes 0.220295
lfemur -57.6161 -0.00333867 -26.9924
ltibia 59.0304
lfoot -23.4936 6.26794
ltoes 9.49475
995
root 4.1999 15.9447 2.00591 23.7338 -4.17558 -2.68318
lowerback 9.96872 -0.874239 1.73744
upperback 9.32389 -1.04532 -0.897242
thorax 4.10798 -0.40575 -1.84269
lowerneck -18.9054 -0.608808 -3.03398
upperneck 38.5783 0.453594 -0.582497
head 17.3339 -0.377247 0.358767
rclavicle -8.74653e-015 -1.98785e-015
rhumerus -54.7635 72.2119 -57.0215
rradius 56.4388
rwrist -15.8899
rhand -8.06824 -40.7465
rfingers 7.12502
rthumb 17.8432 -69.948
lclavicle -8.74653e-015 -1.98785e-015
lhumerus -42.642 -78.6178 38.2256
lradius 58.7109
lwrist 62.274
lhand -27.5452 -28.4249
lfingers 7.12502
lthumb -0.946681 1.55279
rfemur -76.2474 -1.65161 19.9171
rtibia 37.451
rfoot 35.8304 -2.04575
rtoes 1.27018
lfemur -57.5348 -0.153071 -26.9867
ltibia 59.0025
lfoot -23.4984 6.18661
ltoes 10.0554
996
root 4.20024 15.9436 2.00881 23.7486 -4.19532 -2.55015
lowerback 9.8532 -0.873104 1.57403
upperback 9.34536 -1.05501 -0.909978
thorax 4.19545 -0.41782 -1.76566
lowerneck -18.9378 -0.612891 -3.07911
upperneck 38.6332 0.450175 -0.541178
head 17.3723 -0.380404 0.384753
rclavicle 2.66371e-014 6.75868e-015
rhumerus -54.9024 72.2952 -57.1716
rradius 56.4639
rwrist -16.0464
rhand -8.42605 -40.9912
rfingers 7.12502
rthumb 17.4989 -70.2236
lclavicle 2.66371e-014 6.75868e-015
lhumerus -42.9878 -78.7153 38.5847
lradius 58.765
lwrist 62.4201
lhand -27.5967 -28.1769
lfingers 7.12502
lthumb -0.99642 1.80049
rfemur -76.2934 -1.68668 19.771
rtibia 37.469
rfoot 35.8552 -1.87328
rtoes 0.789066
lfemur -57.5401 -0.213544 -27.1229
ltibia 58.9661
lfoot -23.4979 6.15315
ltoes 10.4206
997
root 4.19456 15.9418 2.00813 23.7359 -4.23937 -2.54837
lowerback 9.94495 -0.849319 1.43872
upperback 9.32213 -1.03101 -0.893527
thorax 4.12308 -0.414786 -1.67254
lowerneck -18.9443 -0.57782 -2.99196
upperneck 38.6598 0.510425 -0.640319
head 17.3884 -0.358183 0.33599
rclavicle -1.31198e-014 -1.59028e-015
rhumerus -55.1611 72.4845 -57.345
rradius 56.6047
rwrist -16.2167
rhand -8.096 -41.0368
rfingers 7.12502
rthumb 17.8165 -70.2407
lclavicle -1.31198e-014 -1.59028e-015
lhumerus -43.7863 -78.4374 39.4947
lradius 58.6226
lwrist 62.096
lhand -28.049 -28.5337
lfingers 7.12502
lthumb -1.43324 1.44124
rfemur -76.2954 -1.54834 19.6615
rtibia 37.4821
rfoot 35.8991 -1.25691
rtoes -0.672825
lfemur -57.5359 -0.112917 -27.1375
ltibia 58.9431
lfoot -23.5269 6.06956
ltoes 10.2712
